HIERARCHY
ROOT root
{
	OFFSET 0.000000 0.000000 0.000000
	CHANNELS 6 Xposition Yposition Zposition Zrotation Yrotation Xrotation
	JOINT lhip
	{
		OFFSET 0.058581 -0.082280 -0.017664
		CHANNELS 3 Zrotation Yrotation Xrotation
		JOINT lknee
		{
			OFFSET 0.043451 -0.386469 0.008037
			CHANNELS 3 Zrotation Yrotation Xrotation
			JOINT lankle
			{
				OFFSET -0.014790 -0.426874 -0.037428
				CHANNELS 3 Zrotation Yrotation Xrotation
				JOINT ltoe
				{
					OFFSET 0.041054 -0.060286 0.122042
					CHANNELS 3 Zrotation Yrotation Xrotation
					End Site
					{
						OFFSET 0.000000 0.000000 0.000000
					}
				}
			}
		}
	}
	JOINT rhip
	{
		OFFSET -0.060310 -0.090513 -0.013543
		CHANNELS 3 Zrotation Yrotation Xrotation
		JOINT rknee
		{
			OFFSET -0.043257 -0.383688 -0.004843
			CHANNELS 3 Zrotation Yrotation Xrotation
			JOINT rankle
			{
				OFFSET 0.019056 -0.420046 -0.034562
				CHANNELS 3 Zrotation Yrotation Xrotation
				JOINT rtoe
				{
					OFFSET -0.034840 -0.062106 0.130323
					CHANNELS 3 Zrotation Yrotation Xrotation
					End Site
					{
						OFFSET 0.000000 0.000000 0.000000
					}
				}
			}
		}
	}
	JOINT lowerback
	{
		OFFSET 0.004439 0.124404 -0.038385
		CHANNELS 3 Zrotation Yrotation Xrotation
		JOINT upperback
		{
			OFFSET 0.004488 0.137956 0.026820
			CHANNELS 3 Zrotation Yrotation Xrotation
			JOINT chest
			{
				OFFSET -0.002265 0.056032 0.002855
				CHANNELS 3 Zrotation Yrotation Xrotation
				JOINT lowerneck
				{
					OFFSET -0.013390 0.211636 -0.033468
					CHANNELS 3 Zrotation Yrotation Xrotation
					JOINT upperneck
					{
						OFFSET 0.010113 0.088937 0.050410
						CHANNELS 3 Zrotation Yrotation Xrotation
						End Site
						{
							OFFSET 0.000000 0.000000 0.000000
						}
					}
				}
				JOINT lclavicle
				{
					OFFSET 0.071702 0.114000 -0.018898
					CHANNELS 3 Zrotation Yrotation Xrotation
					JOINT lshoulder
					{
						OFFSET 0.122921 0.045205 -0.019046
						CHANNELS 3 Zrotation Yrotation Xrotation
						JOINT lelbow
						{
							OFFSET 0.255332 -0.015649 -0.022946
							CHANNELS 3 Zrotation Yrotation Xrotation
							JOINT lwrist
							{
								OFFSET 0.265709 0.012698 -0.007375
								CHANNELS 3 Zrotation Yrotation Xrotation
								End Site
								{
									OFFSET 0.000000 0.000000 0.000000
								}
							}
						}
					}
				}
				JOINT rclavicle
				{
					OFFSET -0.082954 0.112472 -0.023707
					CHANNELS 3 Zrotation Yrotation Xrotation
					JOINT rshoulder
					{
						OFFSET -0.113228 0.046853 -0.008472
						CHANNELS 3 Zrotation Yrotation Xrotation
						JOINT relbow
						{
							OFFSET -0.260127 -0.014369 -0.031269
							CHANNELS 3 Zrotation Yrotation Xrotation
							JOINT rwrist
							{
								OFFSET -0.269108 0.006794 -0.006027
								CHANNELS 3 Zrotation Yrotation Xrotation
								End Site
								{
									OFFSET 0.000000 0.000000 0.000000
								}
							}
						}
					}
				}
			}
		}
	}
}
MOTION
Frames: 17
Frame Time: 0.033333
0.198208 0.263278 0.874288 50.842771 -8.523093 87.234777 -12.449127 -26.517319 -29.706579 -11.731731 -2.178591 49.633359 12.714586 16.423421 -22.246178 0.000000 -0.000000 0.000000 -20.846318 0.678035 -8.091264 -2.146845 4.631336 66.255358 9.140826 -10.299128 -11.164319 0.000000 -0.000000 0.000000 6.601794 12.276813 12.327665 4.673395 -0.424268 21.843565 -5.042892 10.570766 -10.499130 -9.577054 -24.277926 43.022986 9.744759 -19.189588 15.989013 -7.192813 -7.957894 3.331562 -76.944245 -30.631533 47.964470 -56.146978 -54.046815 70.561504 -33.721953 -12.360447 -9.929457 17.040847 18.931286 12.521113 65.842278 16.923655 28.915293 -9.056708 10.505133 11.693046 17.654907 -8.790431 3.619011 
0.197999 0.263050 0.875126 50.714786 -8.584868 87.193409 -12.458747 -26.488067 -29.644654 -11.789965 -2.199085 49.682501 12.721980 16.274326 -22.231388 0.000000 -0.000000 0.000000 -21.007818 0.747566 -8.008266 -2.117889 4.541699 66.049609 8.838328 -10.199478 -10.949917 0.000000 -0.000000 0.000000 6.374700 12.099166 12.437865 4.542404 -0.396055 22.109491 -5.038794 10.872833 -10.693382 -9.205459 -24.163949 42.864842 10.094414 -18.798137 15.295911 -6.950380 -7.713618 2.978552 -77.441642 -30.411450 48.602868 -55.692423 -54.232792 70.482711 -34.401736 -12.389764 -10.068002 16.905563 18.408700 11.758683 66.105581 16.582333 29.488207 -9.197938 10.621277 12.152260 18.466007 -8.814374 3.174508 
0.197526 0.262780 0.875754 50.521319 -8.470201 87.207353 -12.227842 -26.241700 -29.700001 -11.726878 -1.897017 49.646747 12.675729 16.372245 -22.324240 0.000000 -0.000000 0.000000 -20.887493 0.981621 -8.085869 -1.975585 4.391532 66.178344 9.273190 -10.131195 -11.326187 0.000000 -0.000000 0.000000 6.072201 12.140323 13.068789 4.687714 -0.120538 21.418044 -4.896949 11.026797 -10.972096 -8.943680 -24.795572 43.230982 10.505582 -19.333083 14.839917 -6.695577 -7.255012 3.015530 -78.178200 -30.344111 49.313734 -55.537709 -54.119684 70.634638 -35.999477 -12.694349 -10.159798 17.078065 17.583926 11.386827 66.150738 15.899407 29.543576 -9.600703 11.269870 12.709300 20.111156 -8.822571 2.467030 
0.197319 0.262159 0.876304 50.239810 -8.418368 87.154089 -12.196062 -25.915245 -29.468498 -11.826705 -2.216761 49.541615 12.641336 16.277913 -22.418394 0.000000 -0.000000 0.000000 -20.722316 1.193930 -8.062296 -1.966494 4.549965 66.095649 9.321076 -10.221149 -11.271314 0.000000 -0.000000 0.000000 5.898457 12.048113 13.511851 4.865090 0.130624 20.604693 -4.767802 11.022396 -10.611294 -9.111816 -24.536203 43.605080 10.926577 -19.063137 14.465154 -6.923059 -6.977025 3.148235 -77.986874 -30.342042 49.345068 -56.056633 -53.989461 70.997673 -34.509673 -12.925012 -10.573635 17.168167 17.314382 10.950041 66.109647 15.738621 29.658755 -9.214498 10.995138 12.994975 18.522971 -8.769696 3.020361 
0.196978 0.261796 0.876702 50.275833 -8.405066 87.092775 -12.168499 -25.894638 -29.367178 -11.814019 -2.052883 49.392060 12.639928 16.469291 -22.384823 0.000000 -0.000000 0.000000 -20.640799 1.177725 -7.931286 -1.956657 4.601611 66.017644 9.223643 -10.353686 -11.002777 0.000000 -0.000000 0.000000 5.893782 12.061691 13.703902 4.922180 0.096335 20.207204 -4.621851 10.903988 -10.283397 -9.157823 -24.478729 43.552121 10.989789 -18.915101 14.345037 -7.051337 -6.974852 3.127458 -77.791412 -30.373711 49.152492 -56.172794 -54.011556 70.974152 -35.183927 -13.109353 -10.849183 17.164875 17.141578 10.681256 65.998303 15.703486 29.578192 -9.039640 11.024976 13.255047 19.410484 -8.983688 2.955102 
0.196653 0.261676 0.876995 50.295235 -8.342228 87.145609 -12.036406 -25.866274 -29.453342 -11.975079 -2.287301 49.511942 12.645762 16.368117 -22.417079 0.000000 -0.000000 0.000000 -20.578417 1.109358 -7.969807 -1.970143 4.544592 65.994775 9.214422 -10.337531 -11.034355 0.000000 -0.000000 0.000000 5.949658 12.013079 13.708362 4.950902 0.068708 20.262846 -4.656066 10.980215 -10.622745 -9.334706 -24.729455 43.911862 11.012232 -19.075042 14.272579 -7.135713 -7.118221 3.501061 -77.671158 -30.605802 49.119741 -56.194501 -53.883963 70.846788 -34.620475 -13.292930 -10.936735 17.157615 17.173676 11.191387 66.016390 15.761445 29.338440 -9.132805 11.124969 13.554403 19.039555 -8.738942 2.770172 
0.196675 0.261289 0.876719 50.216267 -8.421698 87.225362 -12.108487 -25.764849 -29.528317 -11.703740 -1.900542 49.388733 12.713993 16.539950 -22.397292 0.000000 -0.000000 0.000000 -20.594280 1.019032 -8.110934 -2.156685 4.745330 65.998570 9.027465 -10.379584 -10.659168 0.000000 -0.000000 0.000000 6.119699 11.974337 13.206421 4.840687 -0.001062 20.740174 -4.871978 10.919909 -10.459161 -9.300500 -24.646768 43.663079 10.979729 -19.170816 14.552146 -7.090142 -7.279777 3.311562 -77.523817 -30.494815 49.087492 -56.079708 -54.064294 70.977903 -33.158737 -12.857524 -11.164413 17.137189 17.366998 11.155870 66.168122 15.922869 29.362186 -9.245326 10.784542 13.015769 17.867510 -8.757426 2.927408 
0.196890 0.261036 0.876517 50.262172 -8.513171 87.350710 -12.157501 -26.029018 -29.654477 -11.770455 -2.266733 49.475793 12.696750 16.527143 -22.265190 0.000000 -0.000000 0.000000 -20.721006 0.927156 -8.256506 -1.973124 4.790179 66.077940 9.150733 -10.318927 -11.020607 0.000000 -0.000000 0.000000 6.060908 12.034427 13.109212 4.882924 -0.057457 20.280999 -4.708927 10.843312 -10.068656 -9.631762 -24.675071 43.833631 11.128826 -18.981591 14.494953 -7.094845 -7.292000 3.539953 -77.705741 -30.513133 48.892766 -55.943376 -53.829215 70.777249 -31.913441 -12.497616 -11.025513 16.988218 17.371775 11.111847 66.139438 15.988079 29.085127 -8.998786 10.725122 12.787296 16.832763 -8.705362 3.228047 
0.195962 0.260336 0.876864 50.170151 -8.543934 86.815156 -12.536268 -25.579996 -28.914888 -12.003919 -2.703854 49.347512 12.433852 16.847751 -22.204186 0.000000 -0.000000 0.000000 -20.571573 1.017825 -7.767639 -1.691245 5.168728 66.131304 9.516371 -10.452369 -11.223506 0.000000 -0.000000 0.000000 6.507902 12.096811 12.486868 4.750353 0.007050 20.520980 -4.400961 10.965638 -7.693074 -10.512675 -25.169621 43.612932 12.338174 -18.014197 13.579403 -7.714865 -9.223890 4.021184 -75.954783 -31.953883 47.182475 -56.142490 -54.089167 70.614568 -31.278486 -12.254472 -11.059709 16.740405 18.330010 11.096911 65.132995 16.908802 26.769536 -8.513208 11.093511 12.375366 16.945727 -9.174754 3.770694 
0.195987 0.259841 0.876686 50.246612 -8.635287 86.720232 -12.698536 -25.631354 -28.768932 -12.074436 -2.833546 49.394250 12.417039 16.933144 -22.243589 0.000000 -0.000000 0.000000 -20.605505 1.092770 -7.664937 -1.850172 5.097897 66.084266 9.042733 -10.630475 -10.772491 0.000000 -0.000000 0.000000 6.419573 11.963275 12.413540 4.688143 -0.023630 20.620282 -4.354329 11.149002 -7.451461 -10.544522 -25.272870 43.765788 12.573582 -17.665690 13.082685 -7.571601 -9.189083 4.006569 -76.156015 -32.179091 47.199691 -56.011089 -54.026180 70.510610 -30.867770 -12.397908 -11.237740 16.616068 18.295640 11.142134 65.127796 17.153244 26.560543 -8.432829 11.098784 12.719415 16.987680 -9.237484 3.991752 
0.195886 0.259071 0.876469 50.187125 -8.656182 86.713544 -12.718591 -25.553864 -28.694952 -11.896216 -2.624974 49.247977 12.433495 17.035245 -22.192535 0.000000 -0.000000 0.000000 -20.608499 0.996213 -7.720653 -1.861259 5.185612 66.124513 8.951016 -10.640546 -10.616411 0.000000 -0.000000 0.000000 6.400238 12.034231 12.496934 4.624431 -0.005333 20.261650 -4.266185 11.211818 -7.229873 -10.614910 -25.544656 43.915987 12.756849 -17.834684 13.136042 -7.582563 -9.539910 4.148570 -75.945864 -32.207679 46.982719 -55.881180 -54.164161 70.331177 -31.612186 -12.688230 -11.348838 16.854762 18.388862 11.364121 64.940501 16.980594 26.145414 -8.664845 11.434992 12.673088 17.998513 -9.337487 3.966620 
0.195636 0.258593 0.876402 50.106428 -8.576763 86.842778 -12.481024 -25.498026 -28.914868 -12.137581 -2.896711 49.473165 12.363632 16.875107 -22.302807 0.000000 -0.000000 0.000000 -20.478930 1.219423 -7.867125 -1.590366 5.226254 66.315713 9.777690 -10.164091 -11.489585 0.000000 -0.000000 0.000000 6.472857 11.977575 12.465921 4.650805 -0.007888 20.145192 -4.256502 11.191764 -7.198484 -10.730714 -25.315864 43.790456 12.866066 -17.931686 13.254274 -7.665766 -9.497918 4.069021 -75.975397 -32.073553 46.997648 -55.828627 -54.082909 70.323799 -31.398443 -12.254918 -10.825842 16.734657 18.487195 11.285105 65.042281 16.944999 26.180745 -8.585360 11.386666 12.705707 17.465493 -9.114902 4.056286 
0.195827 0.258131 0.876501 50.072329 -8.616168 86.872037 -12.570222 -25.556824 -28.857415 -11.968158 -2.863946 49.444290 12.417785 16.926929 -22.253075 0.000000 -0.000000 0.000000 -20.548910 1.100916 -8.033191 -1.750152 5.055538 66.374473 9.885551 -10.145399 -11.411556 0.000000 -0.000000 0.000000 6.571440 11.968907 12.454137 4.623381 -0.034812 20.299304 -4.319654 11.104539 -7.448904 -10.760714 -25.162010 43.747239 12.425838 -17.987707 13.539534 -7.626234 -9.426589 3.894151 -76.130205 -31.757023 47.037991 -55.478836 -54.308799 69.578130 -32.044814 -11.971863 -10.469400 16.795786 18.493027 11.241406 65.042755 16.809266 26.502502 -8.638862 11.382418 12.665259 17.873066 -9.286753 4.155375 
0.196002 0.257660 0.876999 49.961220 -8.703663 86.895885 -12.704111 -25.654040 -28.744664 -11.789785 -2.796544 49.365581 12.390205 17.011577 -22.211809 0.000000 -0.000000 0.000000 -20.574592 1.258694 -7.971585 -1.658979 5.144809 66.268498 9.719627 -10.249563 -11.249257 0.000000 -0.000000 0.000000 6.548989 12.121205 12.657466 4.633614 0.088115 19.752344 -4.201562 11.039383 -7.203601 -11.063279 -25.219508 44.106976 12.776969 -18.161060 13.507143 -7.757555 -9.854418 4.297297 -75.879694 -31.798762 46.616151 -55.306549 -54.384377 69.272993 -33.536771 -12.605935 -10.762257 16.825627 18.701202 11.305963 64.973734 16.674562 26.126732 -8.558438 11.265132 12.466574 18.900186 -9.316352 4.352117 
0.196044 0.256999 0.877289 49.793729 -8.763413 87.031448 -12.597519 -25.607704 -28.832073 -11.722698 -2.678254 49.257388 12.329997 16.878136 -22.280394 0.000000 -0.000000 0.000000 -20.583966 1.223708 -8.110724 -1.828834 5.224993 66.158774 9.506458 -10.470500 -10.591217 0.000000 -0.000000 0.000000 6.440931 12.025177 12.608912 4.566635 0.076760 19.962420 -4.317511 11.138128 -7.452134 -10.745908 -24.865806 43.957443 12.817602 -18.114604 13.469442 -7.754344 -9.523164 4.048617 -75.826904 -31.856761 46.924046 -55.597988 -54.311667 69.376798 -33.867915 -12.764883 -10.918884 16.934934 18.613398 11.278842 64.964319 16.847540 26.560313 -8.428421 11.070738 12.751981 19.344034 -9.169677 4.056048 
0.195808 0.256195 0.877802 49.747213 -8.636494 87.087415 -12.542720 -25.343710 -28.742456 -11.732245 -2.928472 49.224836 12.310686 16.943522 -22.334409 0.000000 -0.000000 0.000000 -20.350617 1.210225 -8.084125 -1.728023 5.308850 66.083289 9.548251 -10.382475 -10.949590 0.000000 -0.000000 0.000000 6.526274 11.915916 12.698053 4.587964 0.200438 19.655875 -4.286990 11.210429 -7.319993 -10.844090 -24.960798 44.105050 12.565051 -17.975068 13.688645 -7.894251 -9.622101 4.334879 -75.663405 -32.080716 46.697171 -55.631549 -54.183739 69.778055 -33.229652 -12.472366 -10.702570 16.930102 18.768345 11.582223 64.984452 16.768213 26.219583 -8.505980 11.246676 12.843009 18.503519 -9.070009 4.296410 
0.196357 0.255819 0.877939 49.680009 -8.663652 87.251054 -12.541211 -25.469062 -28.835322 -11.605501 -2.955579 49.200247 12.357970 16.918251 -22.286674 0.000000 -0.000000 0.000000 -20.445352 0.968133 -8.260548 -1.769099 5.350300 65.988137 9.393565 -10.313675 -10.800038 0.000000 -0.000000 0.000000 6.641546 11.955309 12.439228 4.539410 0.219410 19.785034 -4.471813 11.237983 -7.440976 -11.033664 -25.283080 44.292452 12.445791 -17.986495 14.179720 -7.986245 -9.413084 4.582316 -75.629107 -32.453964 46.762182 -55.851590 -53.968827 69.921709 -33.520365 -12.514189 -10.691733 17.063135 18.460404 11.882969 64.904642 17.056214 25.988206 -8.311338 11.278597 12.829298 18.947381 -9.283902 4.299875 
